<?xml version="1.0" encoding="UTF-8"?><svg id="Layer_2" xmlns="http://www.w3.org/2000/svg" viewBox="0 0 288.2 90.62"><defs><style>.cls-1{fill:#f7f2e8;}.cls-2{fill:#eeae4d;}</style></defs><g id="Layer_1-2"><path class="cls-2" d="M250.52,88.47H35.72c-16.53,0-31.69-7.79-31.69-26.7V27.14C4.03,12.38,16.35,2.36,29.26,2.36H250.46c17.76,0,34.34,5.72,34.34,26.04l-.83,35.58c0,20.28-15.72,24.49-33.45,24.49Z"/><path class="cls-1" d="M259.39,90.62H28.81C8.89,90.62,0,81.3,0,60.43V30.19C0,9.87,9.42,0,28.81,0h230.05c20.47,0,28.97,8.73,29.33,30.12v30.31c0,20.88-8.88,30.19-28.81,30.19ZM28.81,6.38C12.89,6.38,6.4,13.9,6.4,30.19v30.24c0,16.72,6.97,23.83,23.3,23.83h230.58c18.66,0,21.25-11.34,21.51-23.83V30.19c-.26-15.19-3.88-23.81-22.93-23.81H28.81Z"/><g><path class="cls-1" d="M51.01,54.55c-.2,1.2-.66,2.33-1.37,3.37s-1.75,1.92-3.09,2.62c-1.35,.7-3.17,1.05-5.46,1.05-1.29,0-2.54-.18-3.74-.54-1.2-.36-2.28-.92-3.22-1.67-.95-.76-1.71-1.73-2.28-2.92-.57-1.19-.86-2.63-.86-4.32v-2.67h6.1v1.37c0,.75,.06,1.43,.17,2.06,.11,.63,.31,1.17,.6,1.61,.29,.44,.68,.79,1.18,1.05,.5,.26,1.15,.39,1.96,.39,.89,0,1.57-.16,2.06-.47,.49-.32,.84-.72,1.05-1.22s.34-1.05,.39-1.63,.06-1.15,.06-1.7V30.23h6.74v21.01c0,1-.1,2.11-.3,3.31Z"/><path class="cls-1" d="M79.8,58.56c-2.32,2.02-5.53,3.03-9.62,3.03-4.15,0-7.37-1-9.65-3.01-2.28-2-3.42-5.1-3.42-9.28V30.23h6.74v19.08c0,.83,.07,1.65,.22,2.45,.14,.8,.44,1.51,.9,2.13,.46,.62,1.1,1.12,1.91,1.5,.82,.39,1.91,.58,3.29,.58,2.41,0,4.07-.54,4.98-1.61s1.38-2.76,1.37-5.05V30.23h6.74v19.08c0,4.15-1.16,7.24-3.48,9.26Z"/><path class="cls-1" d="M95.78,30.22l12.81,20.58h.09V30.22h6.31v30.68h-6.74l-12.76-20.54h-.09v20.54h-6.31V30.22h6.7Z"/><path class="cls-1" d="M127.67,30.22v12.72l11.99-12.72h8.42l-11.99,12.12,13.15,18.56h-8.47l-9.24-13.79-3.87,3.91v9.88h-6.75V30.22h6.74Z"/><path class="cls-1" d="M158.69,30.21v25.01h14.96v5.67h-21.7V30.21h6.74Z"/><path class="cls-1" d="M200.37,30.21v5.67h-16.2v6.58h14.87v5.24h-14.87v7.52h16.54v5.67h-23.29V30.21h22.94Z"/><path class="cls-1" d="M210.43,53.32c.37,.72,.87,1.3,1.48,1.74s1.34,.77,2.17,.99,1.69,.32,2.58,.32c.6,0,1.25-.05,1.93-.15s1.33-.29,1.93-.58c.6-.29,1.1-.68,1.5-1.18,.4-.5,.6-1.14,.6-1.91,0-.83-.27-1.5-.79-2.02-.53-.52-1.23-.95-2.08-1.29s-1.83-.64-2.92-.9c-1.09-.26-2.19-.54-3.31-.86-1.15-.29-2.26-.64-3.35-1.05-1.09-.41-2.06-.95-2.92-1.61s-1.55-1.48-2.08-2.47-.79-2.18-.8-3.59c0-1.57,.34-2.94,1.01-4.1,.67-1.16,1.55-2.13,2.64-2.9,1.09-.77,2.32-1.35,3.7-1.72,1.38-.37,2.75-.56,4.12-.56,1.6,0,3.14,.18,4.62,.54,1.48,.36,2.79,.94,3.93,1.74,1.15,.8,2.06,1.83,2.73,3.07,.67,1.25,1.01,2.76,1.01,4.53h-6.53c-.06-.92-.25-1.67-.58-2.28-.33-.6-.77-1.07-1.31-1.42-.54-.34-1.17-.59-1.87-.73-.7-.14-1.47-.21-2.3-.21-.54,0-1.09,.06-1.63,.17-.54,.11-1.04,.32-1.48,.6s-.81,.64-1.1,1.07-.43,.97-.43,1.63c0,.6,.11,1.09,.34,1.46,.23,.37,.68,.72,1.35,1.03,.67,.32,1.6,.63,2.79,.95,1.19,.31,2.74,.72,4.66,1.2,.57,.11,1.37,.32,2.39,.62,1.02,.3,2.03,.78,3.03,1.44,1,.66,1.87,1.54,2.6,2.64s1.1,2.51,1.1,4.23c0,1.4-.27,2.71-.82,3.91-.54,1.2-1.35,2.24-2.43,3.12s-2.41,1.55-4,2.04c-1.59,.49-3.43,.73-5.52,.73-1.69,0-3.33-.21-4.92-.62-1.59-.41-2.99-1.07-4.21-1.95s-2.18-2.02-2.9-3.39c-.72-1.38-1.06-3.01-1.03-4.9h6.53c0,1.03,.19,1.91,.56,2.62Z"/><path class="cls-1" d="M238.32,53.32c.37,.72,.87,1.3,1.48,1.74s1.34,.77,2.17,.99,1.69,.32,2.58,.32c.6,0,1.25-.05,1.93-.15s1.33-.29,1.93-.58c.6-.29,1.1-.68,1.5-1.18,.4-.5,.6-1.14,.6-1.91,0-.83-.27-1.5-.79-2.02-.53-.52-1.23-.95-2.08-1.29s-1.83-.64-2.92-.9c-1.09-.26-2.19-.54-3.31-.86-1.15-.29-2.26-.64-3.35-1.05-1.09-.41-2.06-.95-2.92-1.61s-1.55-1.48-2.08-2.47-.79-2.18-.8-3.59c0-1.57,.34-2.94,1.01-4.1,.67-1.16,1.55-2.13,2.64-2.9,1.09-.77,2.32-1.35,3.7-1.72,1.37-.37,2.75-.56,4.12-.56,1.6,0,3.14,.18,4.62,.54,1.48,.36,2.79,.94,3.93,1.74,1.15,.8,2.06,1.83,2.73,3.07,.67,1.25,1.01,2.76,1.01,4.53h-6.53c-.06-.92-.25-1.67-.58-2.28-.33-.6-.77-1.07-1.31-1.42-.54-.34-1.17-.59-1.87-.73-.7-.14-1.47-.21-2.3-.21-.54,0-1.09,.06-1.63,.17-.54,.11-1.04,.32-1.48,.6s-.81,.64-1.1,1.07-.43,.97-.43,1.63c0,.6,.11,1.09,.34,1.46,.23,.37,.68,.72,1.35,1.03,.67,.32,1.6,.63,2.79,.95,1.19,.31,2.74,.72,4.66,1.2,.57,.11,1.37,.32,2.39,.62,1.02,.3,2.03,.78,3.03,1.44,1,.66,1.87,1.54,2.6,2.64s1.1,2.51,1.1,4.23c0,1.4-.27,2.71-.82,3.91-.54,1.2-1.35,2.24-2.43,3.12s-2.41,1.55-4,2.04c-1.59,.49-3.43,.73-5.52,.73-1.69,0-3.33-.21-4.92-.62-1.59-.41-2.99-1.07-4.21-1.95s-2.18-2.02-2.9-3.39c-.72-1.38-1.06-3.01-1.03-4.9h6.53c0,1.03,.19,1.91,.56,2.62Z"/></g></g></svg>